<svg width="50" height="50" viewBox="0 0 50 50" fill="none" xmlns="http://www.w3.org/2000/svg">
<g id="Right">
<rect id="Rectangle 2 Copy" width="50" height="50" transform="matrix(-1 0 0 1 50 0)" fill="#1D1F24"/>
<path id="Arrow" d="M17.8819 24.2856L17.8574 24.291H28.3564L25.0559 20.9832C24.8943 20.8217 24.8057 20.6029 24.8057 20.3733C24.8057 20.1437 24.8943 19.9265 25.0559 19.7646L25.5695 19.2508C25.731 19.0893 25.9462 19 26.1757 19C26.4053 19 26.6206 19.0887 26.7821 19.2501L32.4398 24.9073C32.6019 25.0695 32.6906 25.2854 32.6899 25.5152C32.6906 25.7462 32.6019 25.9623 32.4398 26.1242L26.7821 31.7819C26.6206 31.9432 26.4054 32.032 26.1757 32.032C25.9462 32.032 25.731 31.9431 25.5695 31.7819L25.0559 31.268C24.8943 31.1068 24.8057 30.8915 24.8057 30.6619C24.8057 30.4324 24.8943 30.2284 25.0559 30.0671L28.3937 26.7408H17.8702C17.3973 26.7408 16.9999 26.3332 16.9999 25.8606V25.1339C16.9999 24.6613 17.409 24.2856 17.8819 24.2856Z" fill="white"/>
</g>
</svg>
