<svg width="50" height="50" viewBox="0 0 50 50" fill="none" xmlns="http://www.w3.org/2000/svg">
<g id="Left">
<rect id="Rectangle 2" width="50" height="50" fill="#1D1F24"/>
<path id="Arrow" d="M31.808 24.2856L31.8325 24.291H21.3335L24.634 20.9832C24.7956 20.8217 24.8843 20.6029 24.8843 20.3733C24.8843 20.1437 24.7956 19.9265 24.634 19.7646L24.1205 19.2508C23.959 19.0893 23.7438 19 23.5143 19C23.2847 19 23.0694 19.0887 22.9079 19.2501L17.2502 24.9073C17.088 25.0695 16.9994 25.2854 17 25.5152C16.9994 25.7462 17.088 25.9623 17.2502 26.1242L22.9079 31.7819C23.0694 31.9432 23.2845 32.032 23.5143 32.032C23.7438 32.032 23.959 31.9431 24.1205 31.7819L24.634 31.268C24.7956 31.1068 24.8843 30.8915 24.8843 30.6619C24.8843 30.4324 24.7956 30.2284 24.634 30.0671L21.2963 26.7408H31.8198C32.2926 26.7408 32.69 26.3332 32.69 25.8606V25.1339C32.69 24.6613 32.2809 24.2856 31.808 24.2856Z" fill="white"/>
</g>
</svg>
